<?xml version="1.0" encoding="UTF-8" standalone="no"?>
<!DOCTYPE svg PUBLIC "-//W3C//DTD SVG 20010904//EN"
              "http://www.w3.org/TR/2001/REC-SVG-20010904/DTD/svg10.dtd">

<svg xmlns="http://www.w3.org/2000/svg"
     width="11.3778in" height="11.3778in"
     viewBox="0 0 1024 1024">
  <path id="Imported Path"
        fill="none" stroke="black" stroke-width="1"
        d="M 381.79,374.38
           C 381.79,374.38 399.45,447.94 399.45,447.94
             399.45,447.94 392.54,411.40 392.54,411.40
             392.54,411.40 381.79,374.38 381.79,374.38 Z
           M 388.73,412.27
           C 388.73,412.27 399.45,447.94 399.45,447.94
             399.45,447.94 381.79,374.38 381.79,374.38
             381.79,374.38 388.73,412.27 388.73,412.27 Z
           M 328.08,384.10
           C 328.08,384.10 392.54,411.40 392.54,411.40
             392.54,411.40 343.48,420.80 343.48,420.80
             343.48,420.80 328.08,384.10 328.08,384.10 Z
           M 381.79,374.38
           C 381.79,374.38 392.54,411.40 392.54,411.40
             392.54,411.40 328.08,384.10 328.08,384.10
             328.08,384.10 381.79,374.38 381.79,374.38 Z
           M 332.01,423.14
           C 332.01,423.14 343.48,420.80 343.48,420.80
             343.48,420.80 347.88,458.35 347.88,458.35
             347.88,458.35 332.01,423.14 332.01,423.14 Z
           M 328.08,384.10
           C 328.08,384.10 343.48,420.80 343.48,420.80
             343.48,420.80 332.01,423.14 332.01,423.14
             332.01,423.14 328.08,384.10 328.08,384.10 Z
           M 388.73,412.27
           C 388.73,412.27 347.88,458.35 347.88,458.35
             347.88,458.35 399.45,447.94 399.45,447.94
             399.45,447.94 388.73,412.27 388.73,412.27 Z
           M 332.01,423.14
           C 332.01,423.14 347.88,458.35 347.88,458.35
             347.88,458.35 388.73,412.27 388.73,412.27
             388.73,412.27 332.01,423.14 332.01,423.14 Z
           M 392.54,411.40
           C 392.54,411.40 347.88,458.35 347.88,458.35
             347.88,458.35 343.48,420.80 343.48,420.80
             343.48,420.80 392.54,411.40 392.54,411.40 Z
           M 399.45,447.94
           C 399.45,447.94 347.88,458.35 347.88,458.35
             347.88,458.35 392.54,411.40 392.54,411.40
             392.54,411.40 399.45,447.94 399.45,447.94 Z
           M 388.73,412.27
           C 388.73,412.27 328.08,384.10 328.08,384.10
             328.08,384.10 332.01,423.14 332.01,423.14
             332.01,423.14 388.73,412.27 388.73,412.27 Z
           M 381.79,374.38
           C 381.79,374.38 328.08,384.10 328.08,384.10
             328.08,384.10 388.73,412.27 388.73,412.27
             388.73,412.27 381.79,374.38 381.79,374.38 Z" />
</svg>
